{"title":"Tomorrow When The War Began.2010.720p.BRRip.x264.Feel-Free","uid":6065031,"size":2081288256,"categoryP":"video","categoryS":"hd___movies","magnet":"?xt=urn:btih:8b3ab1967a2508b3ee4a073412c879422210f2c9&amp;dn=Tomorrow+When+The+War+Began.2010.720p.BRRip.x264.Feel-Free&amp;tr=udp%3A%2F%2Ftracker.openbittorrent.com%3A80&amp;tr=udp%3A%2F%2Fopen.demonii.com%3A1337&amp;tr=udp%3A%2F%2Ftracker.coppersurfer.tk%3A6969&amp;tr=udp%3A%2F%2Fexodus.desync.com%3A6969","seeders":0,"leechers":1,"uploader":"neon","files":-1,"time":1293310100,"description":"Genre:Action | Adventure | Drama\nLanguage:English\n &lt;a href=&quot; http://www.imdb.com/title/tt1456941/&quot; rel=&quot;nofollow&quot; target=&quot;_NEW&quot;&gt; http://www.imdb.com/title/tt1456941/&lt;/a&gt;\nSource:BluRay.x264-aAF\n\n\nFormat : Matroska\nFile size : 1.93 GiB\nDuration : 1h 43mn\nOverall bit rate : 2 667 Kbps\n\n\nVideo\nFormat settings, CABAC : Yes\nFormat settings, ReFrames : 4 frames\nFormat settings, GOP : M=4, N=16\nCodec ID : V_MPEG4/ISO/AVC\nDuration : 1h 43mn\nBit rate : 2 300 Kbps\nWidth : 1 280 pixels\nHeight : 528 pixels\nDisplay aspect ratio : 2.40:1\nFrame rate mode : Variable\nFrame rate : 24.000 fps\nColor space : YUV\nChroma subsampling : 4:2:0\nBit depth : 8 bits\nScan type : Progressive\nBits/(Pixel*Frame) : 0.142\nStream size : 1.61 GiB (84%)\nWriting library : x264\n\n\nAudio\nID : 2\nFormat : AC-3\nFormat/Info : Audio Coding 3\nMode extension : CM (complete main)\nCodec ID : A_AC3\nDuration : 1h 43mn\nBit rate mode : Constant\nBit rate : 384 Kbps\nChannel(s) : 6 channels\nChannel positions : Front: L C R, Side: L R, LFE\nSampling rate : 48.0 KHz\nBit depth : 16 bits\nVideo delay : -1mn 5s\nStream size : 285 MiB (14%)\nLanguage : English\n\n\nPlot:\nWhen their country is invaded and their families are taken, eight unlikely high school teenagers band together to fight\n &lt;a href=&quot;\nhttp://rapidhdd.com/images/144370vlcsnap-2010-12-25-21h30m19s186.png&quot; rel=&quot;nofollow&quot; target=&quot;_NEW&quot;&gt;\nhttp://rapidhdd.com/images/144370vlcsnap-2010-12-25-21h30m19s186.png&lt;/a&gt; &lt;a href=&quot;\nhttp://www.rapidhdd.com/images/15815vlcsnap-2010-12-25-21h31m16s189.png&quot; rel=&quot;nofollow&quot; target=&quot;_NEW&quot;&gt;\nhttp://www.rapidhdd.com/images/15815vlcsnap-2010-12-25-21h31m16s189.png&lt;/a&gt; &lt;a href=&quot;\nhttp://www.rapidhdd.com/images/336046vlcsnap-2010-12-25-21h30m29s228.png&quot; rel=&quot;nofollow&quot; target=&quot;_NEW&quot;&gt;\nhttp://www.rapidhdd.com/images/336046vlcsnap-2010-12-25-21h30m29s228.png&lt;/a&gt; &lt;a href=&quot;\nhttp://www.rapidhdd.com/images/959892vlcsnap-2010-12-25-21h30m52s200.png&quot; rel=&quot;nofollow&quot; target=&quot;_NEW&quot;&gt;\nhttp://www.rapidhdd.com/images/959892vlcsnap-2010-12-25-21h30m52s200.png&lt;/a&gt; &lt;a href=&quot;\nhttp://www.rapidhdd.com/images/905322vlcsnap-2010-12-25-21h31m52s23.png&quot; rel=&quot;nofollow&quot; target=&quot;_NEW&quot;&gt;\nhttp://www.rapidhdd.com/images/905322vlcsnap-2010-12-25-21h31m52s23.png&lt;/a&gt;","torrent":{"xt":"urn:btih:8b3ab1967a2508b3ee4a073412c879422210f2c9","amp;dn":"Tomorrow+When+The+War+Began.2010.720p.BRRip.x264.Feel-Free","amp;tr":["udp%3A%2F%2Ftracker.openbittorrent.com%3A80","udp%3A%2F%2Fopen.demonii.com%3A1337","udp%3A%2F%2Ftracker.coppersurfer.tk%3A6969","udp%3A%2F%2Fexodus.desync.com%3A6969"],"infoHash":"8b3ab1967a2508b3ee4a073412c879422210f2c9","infoHashBuffer":{"type":"Buffer","data":[139,58,177,150,122,37,8,179,238,74,7,52,18,200,121,66,34,16,242,201]},"announce":[],"urlList":[]}}